<?xml version="1.0" encoding="utf-8"?>
<!-- Generator: Adobe Illustrator 21.0.2, SVG Export Plug-In . SVG Version: 6.00 Build 0)  -->
<svg version="1.1" id="Laag_1" xmlns="http://www.w3.org/2000/svg" xmlns:xlink="http://www.w3.org/1999/xlink" x="0px" y="0px"
	 viewBox="0 0 430.2 81.8" style="enable-background:new 0 0 430.2 81.8;" xml:space="preserve">
<style type="text/css">
	.st0{fill:#1D1D1B;}
	.st1{opacity:0.6;fill:#1D1D1B;enable-background:new    ;}
	.st2{fill:#D7A967;}
	.st3{fill:#E6E6E6;}
	.st4{fill:#CECDCD;}
	.st5{opacity:0.2;enable-background:new    ;}
</style>
<g>
	<g>
		<path class="st0" d="M49.7,42.8l-15,30.3h-7.4L12.4,42.8v34.9H0V22.2h16.7L31,52.7l14.4-30.5h16.7v55.5H49.7V42.8L49.7,42.8z"/>
	</g>
	<circle class="st1" cx="92.9" cy="48.5" r="31.4"/>
	<g>
		<path class="st0" d="M155.5,22.3h12.3v55.5h-12.4L129,43v34.8h-12.4V22.3h11.6L155.4,58L155.5,22.3L155.5,22.3z"/>
		<path class="st0" d="M181.5,22.3h12.4v55.5h-12.4V22.3z"/>
		<path class="st0" d="M231,33v44.8h-12.4V33h-15.7V22.3h43.8V33H231z"/>
		<path class="st0" d="M290.2,22.3h12.4v55.5h-12.4V56h-22.1v21.8h-12.3V22.3h12.4v23.2h22.1L290.2,22.3L290.2,22.3z"/>
		<path class="st0" d="M362.9,70.1c-5.6,5.5-12.5,8.2-20.7,8.2s-15.1-2.7-20.7-8.2s-8.4-12.3-8.4-20.4s2.8-15,8.4-20.4
			c5.6-5.5,12.5-8.2,20.7-8.2s15.1,2.7,20.7,8.2s8.4,12.3,8.4,20.4S368.5,64.6,362.9,70.1z M358.7,49.7c0-4.9-1.6-9.2-4.8-12.7
			s-7.1-5.2-11.7-5.2s-8.5,1.7-11.7,5.2s-4.8,7.7-4.8,12.7c0,4.9,1.6,9.2,4.8,12.6c3.2,3.5,7.1,5.2,11.7,5.2s8.5-1.7,11.7-5.2
			C357.1,58.9,358.7,54.7,358.7,49.7z"/>
		<path class="st0" d="M426.8,40.7c0,8.9-3.5,14.6-10.6,17.2l14,19.8H415L402.7,60h-8.6v17.7h-12.3V22.2h21c8.6,0,14.8,1.5,18.4,4.4
			C424.9,29.6,426.8,34.3,426.8,40.7z M411.8,47.3c1.5-1.4,2.3-3.6,2.3-6.5c0-3-0.8-5-2.4-6.2c-1.6-1.1-4.4-1.7-8.3-1.7h-9.3v16.4h9
			C407.4,49.4,410.3,48.7,411.8,47.3z"/>
	</g>
	<g>
		<g>
			<g>
				<path class="st0" d="M129.7,1.4c-1.5-1.5-3-1.5-4-1.3c-2.1,0.5-4.2,2.6-6.4,6.6c-0.6,1.1-1.2,2.3-1.6,3.2
					c-0.5-0.3-1-0.5-1.5-0.6c-1.9-0.5-3.8,0-5.2,1.3l-4.6,4.6l-9.3,9.3L85.9,35.7l-7.6-7.6L78.2,28l-0.1-0.1L78,27.8
					c0,0-0.1,0-0.1-0.1l-8.2-3.4c-0.7-0.3-1.4-0.1-1.9,0.4L50,42.5c-0.3,0.3-0.5,0.8-0.5,1.3c0,0.2,0,0.5,0.1,0.7l3.5,8.1v0.1
					c0,0,0,0,0,0.1c0,0,0,0.1,0.1,0.1c0,0,0,0,0,0.1c0,0,0,0,0.1,0.1l0.1,0.1l5.4,5.4l-2.2,2.2c-0.3,0.3-0.5,0.8-0.5,1.3
					s0.2,0.9,0.5,1.3L68,74.8c0.3,0.3,0.8,0.5,1.3,0.5s0.9-0.2,1.3-0.5l2.2-2.2l5.4,5.4l0.1,0.1c0,0,0,0,0.1,0.1c0,0,0,0,0.1,0
					c0,0,0.1,0,0.1,0.1c0,0,0,0,0.1,0h0.1l8.1,3.5c0.5,0,1.3-0.2,1.8-0.7l17.8-17.8c0.5-0.5,0.7-1.3,0.4-1.9l-3.4-8.2
					c0,0,0-0.1-0.1-0.1c0,0,0-0.1-0.1-0.1c0,0,0-0.1-0.1-0.1l-0.1-0.1l-7.6-7.6l25.1-25.1c1.4-1.4,1.8-3.2,1.3-5.2
					c-0.1-0.5-0.3-1-0.6-1.5c1-0.5,2.3-1.1,3.5-1.8c4.2-2.4,6.3-4.7,6.3-7.1C131.1,3.7,130.9,2.5,129.7,1.4z M123.1,8.4
					c-0.3,0.2-0.6,0.4-1,0.5c1.6-2.7,3.3-5.1,4.5-5.4c0.1,0,0.3-0.1,0.7,0.3c0.2,0.2,0.3,0.4,0.3,0.6C127.6,4.9,126.7,6.4,123.1,8.4
					z"/>
			</g>
			<path class="st2" d="M112.6,14.1l1.1-1.1c0.3-0.3,0.8-0.7,1.8-0.4c0.7,0.2,1.4,0.6,1.9,1.2l0,0c0.6,0.6,1,1.2,1.2,1.9
				c0.1,0.2,0.1,0.4,0.1,0.6c0,0.6-0.3,0.9-0.5,1.1l-1.1,1.1c-0.4-0.9-1-1.8-1.8-2.6C114.5,15.1,113.5,14.5,112.6,14.1z"/>
			<path class="st2" d="M105.7,21l3.4-3.4c1.1-1.1,2.9,0,3.7,0.8c0.6,0.6,1.1,1.4,1.2,2.1c0.2,0.8-0.2,1.3-0.4,1.5l0,0l-1.1,1.1
				C110.4,21.8,108,21,105.7,21z"/>
			<path class="st2" d="M97.3,38.3L93,42.6l-4.3-4.3c1.3-0.8,2.8-1.2,4.3-1.2C94.6,37,96,37.4,97.3,38.3z"/>
			<path class="st2" d="M99.5,27.2l0.3-0.3c2.7-2.7,6.9-3.1,10-1.1l-3.7,3.7C104.2,28,101.9,27.3,99.5,27.2z"/>
			<path class="st2" d="M93.2,33.5l0.3-0.3l0,0c1.5-1.5,3.5-2.4,5.7-2.4c1.5,0,3,0.4,4.3,1.2l-3.7,3.7C98,34.3,95.6,33.5,93.2,33.5z
				"/>
			
				<rect x="64.6" y="59.6" transform="matrix(0.7071 -0.7071 0.7071 0.7071 -27.4309 65.469)" class="st3" width="1.4" height="12.5"/>
			<path class="st3" d="M74,68.5L74,68.5L74,68.5L62.6,57.2l0,0l0,0l-5.4-5.4l11.5-11.5c0.7-0.7,0.7-1.8,0-2.5s-1.8-0.7-2.5,0
				L55.3,48.7l-2-4.6L69.4,28l4.6,1.9l-3.9,3.9c-0.3,0.3-0.5,0.8-0.5,1.3s0.2,0.9,0.5,1.3c0.7,0.7,1.8,0.7,2.5,0l4.5-4.5l7.6,7.6
				l0,0l7,7l0,0l7.6,7.6l-20,20L74,68.5z"/>
			<polygon class="st4" points="82.4,75.8 101.2,57 103.1,61.7 87,77.8 			"/>
			<path class="st5" d="M77.5,67c0,0.5,0.2,1,0.5,1.3c0.4,0.4,0.8,0.5,1.3,0.5s1-0.2,1.3-0.5c0.4-0.4,0.5-0.8,0.5-1.3
				s-0.2-1-0.5-1.3c-0.7-0.7-1.9-0.7-2.6,0C77.7,66,77.5,66.5,77.5,67z"/>
			<path class="st5" d="M78.6,58.9c0,0.5,0.2,1,0.5,1.3c0.7,0.7,1.9,0.7,2.6,0c0.4-0.4,0.5-0.8,0.5-1.3s-0.2-1-0.5-1.3
				c-0.7-0.7-1.9-0.7-2.6,0C78.8,57.9,78.6,58.4,78.6,58.9z"/>
		</g>
	</g>
</g>
</svg>
